<?xml version="1.0" standalone="no"?>
<!DOCTYPE svg PUBLIC "-//W3C//DTD SVG 20010904//EN"
 "http://www.w3.org/TR/2001/REC-SVG-20010904/DTD/svg10.dtd">
<svg version="1.0" xmlns="http://www.w3.org/2000/svg"
 width="425.000000pt" height="425.000000pt" viewBox="0 0 425.000000 425.000000"
 preserveAspectRatio="xMidYMid meet">
<metadata>
Created by potrace 1.11, written by Peter Selinger 2001-2013
</metadata>
<g transform="translate(0.000000,425.000000) scale(0.100000,-0.100000)"
fill="#000000" stroke="none">
<path d="M545 3358 c-118 -16 -216 -62 -306 -145 -77 -72 -121 -139 -155 -240
-35 -101 -38 -244 -7 -340 85 -260 318 -427 571 -408 46 3 181 26 300 51 119
24 218 44 220 44 14 0 -8 21 -53 50 l-54 35 40 75 c62 115 90 209 91 304 2
164 -52 297 -167 411 -129 130 -298 187 -480 163z m135 -461 c32 -16 70 -73
70 -104 0 -77 -80 -143 -150 -123 -72 21 -110 88 -88 156 23 68 105 103 168
71z"/>
<path d="M1934 3359 c-151 -18 -303 -111 -391 -241 -72 -106 -98 -193 -98
-323 0 -128 26 -215 96 -319 62 -94 121 -146 224 -196 114 -57 200 -68 348
-45 105 16 438 83 445 90 3 3 -28 26 -101 76 -5 4 14 49 41 100 61 113 82 187
82 292 0 346 -297 607 -646 566z m147 -472 c87 -59 63 -187 -41 -217 -48 -14
-111 16 -133 63 -23 47 -21 78 6 118 42 62 108 76 168 36z"/>
<path d="M2650 2870 l0 -300 60 0 60 0 3 208 2 207 3 -207 2 -208 65 0 65 0 0
225 c0 182 -3 232 -15 255 -19 36 -43 50 -89 50 -34 0 -36 2 -36 35 l0 35 -60
0 -60 0 0 -300z"/>
<path d="M2980 3100 c-29 -29 -32 -50 -28 -258 3 -182 4 -193 25 -214 16 -16
38 -23 81 -26 51 -4 62 -1 88 21 l29 25 3 193 c4 209 1 230 -28 259 -29 29
-141 29 -170 0z m87 -312 c-1 -46 -3 -11 -3 77 0 88 2 125 3 83 2 -42 2 -114
0 -160z"/>
<path d="M3210 2855 l0 -225 90 0 90 0 0 50 0 50 -35 0 -35 0 0 175 0 175 -55
0 -55 0 0 -225z"/>
<path d="M3420 2855 l0 -225 90 0 90 0 0 50 0 50 -40 0 -40 0 0 175 0 175 -50
0 -50 0 0 -225z"/>
<path d="M3665 3058 c-11 -6 -23 -16 -27 -22 -4 -6 -8 -93 -8 -193 l0 -183 40
0 39 0 4 73 3 72 2 -72 2 -73 40 0 40 0 0 189 c0 185 -1 190 -22 205 -26 19
-84 20 -113 4z m52 -155 c-2 -16 -4 -3 -4 27 0 30 2 43 4 28 2 -16 2 -40 0
-55z"/>
<path d="M3862 3044 c-21 -15 -22 -20 -22 -195 l0 -179 40 0 39 0 4 158 3 157
2 -157 2 -158 35 0 35 0 0 178 c0 161 -2 181 -18 195 -24 21 -90 22 -120 1z"/>
<path d="M4040 2870 l0 -180 59 0 c90 0 91 3 91 184 0 105 -4 156 -12 164 -7
7 -39 12 -75 12 l-63 0 0 -180z m77 -57 c-2 -32 -3 -6 -3 57 0 63 1 89 3 58 2
-32 2 -84 0 -115z"/>
<path d="M1302 2618 c-9 -9 -7 -14 6 -24 15 -11 15 -13 -10 -23 -31 -12 -40
-51 -12 -51 9 0 14 -7 12 -17 -2 -11 -11 -17 -21 -15 -13 2 -17 -4 -17 -28 0
-20 5 -30 15 -30 8 0 15 -7 15 -15 0 -8 -9 -15 -20 -15 -16 0 -20 -7 -20 -30
0 -20 5 -30 15 -30 8 0 15 -7 15 -15 0 -8 -9 -15 -20 -15 -16 0 -20 -7 -20
-30 0 -18 5 -29 12 -27 6 1 14 -6 16 -15 2 -13 -3 -18 -17 -18 -16 0 -21 -6
-21 -25 0 -16 6 -25 15 -25 8 0 15 -7 15 -15 0 -8 -7 -15 -15 -15 -10 0 -15
-10 -15 -30 0 -20 5 -30 15 -30 21 0 19 -28 -2 -32 -23 -4 -24 -46 -1 -54 24
-7 23 -34 -2 -34 -15 0 -20 -7 -20 -25 0 -18 5 -25 20 -25 13 0 20 -7 20 -20
0 -13 -7 -20 -20 -20 -15 0 -20 -7 -20 -25 0 -18 5 -25 20 -25 13 0 20 -7 20
-20 0 -13 -7 -20 -20 -20 -15 0 -20 -7 -20 -25 0 -19 5 -25 21 -25 14 0 19 -5
17 -17 -2 -10 -9 -17 -15 -16 -14 3 -27 -33 -18 -48 4 -6 13 -8 21 -5 9 3 14
-2 14 -14 0 -11 -7 -20 -15 -20 -9 0 -15 -9 -15 -25 0 -18 5 -25 20 -25 13 0
20 -7 20 -20 0 -11 -7 -20 -15 -20 -9 0 -15 -9 -15 -25 0 -18 5 -25 20 -25 24
0 26 -18 5 -34 -19 -14 -9 -57 13 -54 9 2 18 -5 20 -14 2 -11 -3 -18 -12 -18
-10 0 -16 -9 -16 -25 0 -18 5 -25 19 -25 28 0 37 -21 17 -36 -23 -16 -17 -49
9 -49 11 0 21 -8 23 -18 2 -10 -3 -17 -12 -17 -9 0 -16 -6 -16 -12 0 -23 16
-39 32 -33 21 8 33 -12 19 -29 -9 -10 -8 -15 5 -20 22 -8 24 -8 24 8 0 20 28
28 38 10 8 -14 11 -14 27 3 17 16 17 18 2 21 -23 5 -21 32 2 32 17 0 31 18 31
41 0 5 -7 9 -16 9 -9 0 -14 7 -12 18 2 9 12 17 22 17 24 0 42 43 21 51 -24 10
-17 34 9 34 28 0 42 35 20 48 -21 12 -7 42 18 39 26 -3 49 30 29 42 -18 11 -4
33 18 29 28 -5 52 21 41 42 -7 13 -6 20 6 24 9 4 22 2 28 -3 17 -14 41 4 41
31 0 14 7 24 18 26 10 2 17 -3 17 -12 0 -19 5 -20 31 -6 10 6 19 20 19 30 0
23 25 27 34 5 7 -18 53 -4 48 16 -3 12 15 29 31 29 4 0 7 -7 7 -15 0 -9 10
-15 26 -15 20 0 25 4 20 17 -8 21 14 35 32 21 10 -9 16 -8 23 3 13 21 11 26
-13 33 -22 6 -22 7 -5 20 9 7 17 18 17 24 0 17 -21 26 -30 12 -11 -18 -41 -5
-33 16 4 12 1 15 -18 12 -15 -2 -24 -9 -23 -20 1 -9 -7 -19 -17 -21 -12 -3
-19 0 -19 9 0 8 -10 14 -25 14 -18 0 -25 -5 -25 -19 0 -28 -19 -36 -34 -16
-17 23 -56 12 -49 -14 6 -23 -23 -36 -35 -15 -12 22 -45 7 -39 -18 6 -23 -17
-35 -36 -19 -10 8 -19 7 -32 -3 -16 -11 -17 -17 -7 -29 10 -12 9 -16 -4 -21
-9 -3 -22 -2 -29 4 -18 15 -49 -22 -33 -38 18 -18 -6 -40 -26 -23 -20 17 -44
-23 -26 -44 16 -19 3 -37 -20 -30 -26 8 -47 -30 -24 -43 19 -10 11 -32 -12
-32 -9 0 -14 10 -14 28 0 32 -9 46 -32 55 -22 8 -23 26 -3 33 23 9 19 54 -5
54 -11 0 -20 7 -20 15 0 8 6 15 14 15 8 0 16 6 19 13 6 20 -4 47 -19 47 -8 0
-14 7 -14 15 0 8 7 15 15 15 10 0 15 10 15 29 0 21 -5 28 -16 27 -9 0 -18 7
-19 17 -2 11 3 17 16 17 27 0 26 46 -1 53 -11 3 -20 10 -20 17 0 7 9 14 20 17
23 6 29 53 6 53 -23 0 -29 31 -6 37 24 6 28 53 5 53 -8 0 -15 9 -15 20 0 14 6
20 18 18 27 -5 29 48 2 55 -23 6 -19 27 6 27 9 0 14 11 14 30 0 20 -5 30 -15
30 -8 0 -15 7 -15 15 0 8 9 15 20 15 16 0 20 7 20 30 0 20 -5 30 -15 30 -8 0
-15 7 -15 15 0 8 6 15 14 15 13 0 26 20 26 41 0 5 -7 9 -15 9 -8 0 -15 9 -15
21 0 12 4 18 11 13 6 -3 15 0 20 7 14 22 10 49 -6 49 -8 0 -15 7 -15 15 0 8 9
15 20 15 15 0 20 7 20 25 0 16 -6 25 -15 25 -18 0 -20 21 -3 38 8 8 8 15 -2
27 -12 14 -15 14 -22 2 -8 -16 -48 -12 -48 4 0 13 -24 11 -38 -3z"/>
<path d="M1651 1436 c-9 -10 -8 -15 4 -19 22 -9 7 -39 -16 -32 -19 6 -23 -2
-13 -28 3 -8 13 -13 23 -10 23 6 36 -23 16 -34 -9 -5 -12 -17 -9 -31 5 -17 11
-21 30 -16 26 7 33 -13 14 -32 -16 -16 0 -46 21 -41 26 7 45 -18 23 -31 -13
-7 -14 -13 -5 -31 13 -23 26 -27 36 -11 5 8 11 7 21 -1 13 -10 12 -14 -1 -29
-13 -15 -14 -19 -1 -29 8 -7 25 -9 41 -5 26 6 27 5 21 -19 -8 -33 21 -55 40
-30 14 21 37 7 31 -18 -3 -11 -1 -19 3 -19 5 0 15 -3 24 -6 11 -4 16 -1 16 10
0 9 8 16 20 16 13 0 20 -7 20 -20 0 -15 7 -20 25 -20 16 0 25 6 25 15 0 8 7
15 15 15 8 0 15 -7 15 -15 0 -9 9 -15 25 -15 15 0 25 6 25 14 0 8 9 18 20 21
37 12 23 85 -16 85 -15 0 -24 6 -24 15 0 9 -9 15 -25 15 -16 0 -25 -6 -25 -15
0 -8 -9 -15 -20 -15 -13 0 -20 7 -20 20 0 15 -7 20 -24 20 -14 0 -28 -4 -31
-10 -3 -5 -13 -10 -22 -10 -11 0 -14 6 -9 23 7 28 -28 55 -48 37 -10 -7 -17
-6 -25 4 -9 10 -8 16 3 26 22 18 -1 53 -30 45 -27 -6 -40 20 -17 33 23 13 -1
55 -26 47 -23 -7 -36 21 -16 32 22 13 8 55 -16 48 -13 -4 -21 0 -26 11 -4 11
-2 19 6 22 9 3 9 7 0 18 -15 19 -29 18 -29 -2 0 -10 -7 -14 -17 -12 -10 2 -17
10 -15 16 3 16 -23 15 -37 -2z"/>
</g>
</svg>
